<svg width="500" height="80" version="1.1" viewBox="0 0 500 80" xml:space="preserve" xmlns="http://www.w3.org/2000/svg"><g transform="translate(-37.23 -28.091)"><path d="m57.403 57.045c-1.383-2.4971-4.149-4.0721-7.0686-4.0721-4.3411 0-7.4144 3.0349-7.4144 7.3375 0 2.305 1.0757 3.9953 2.9965 5.1862l5.2246 2.766c2.4971 1.2293 5.8393 2.6123 5.8393 5.8777 0 3.8416-3.3422 6.8381-7.1455 6.8381-3.4959 0-5.7625-2.1513-6.9918-5.2246l-1.6135 0.72991c1.3446 3.7264 4.4947 6.2235 8.5284 6.2235 4.6868 0 9.0663-3.6111 9.0663-8.4132 0-2.6123-1.1141-4.3795-3.3038-5.7625l-5.532-2.8812c-2.3434-1.1141-5.2246-2.3818-5.2246-5.4167s2.3434-5.532 5.4551-5.532c2.7276 0 4.5716 1.3446 5.8777 3.4191zm56.05-3.688h-1.844v28.966h1.844zm69.188 15.021v1.7287h10.372c-0.11525 3.1501-1.0372 5.5704-3.5343 7.6833-2.3818 1.9208-5.4167 3.1886-8.5284 3.1886-7.2223 0-13.138-5.993-13.138-13.138 0-6.9534 6.0698-13.138 13.138-13.138 4.6868 0 8.6053 2.3818 11.179 6.2235l1.4982-1.1909c-3.0349-4.149-7.2991-6.7613-12.562-6.7613-8.2979 0-15.098 6.6845-15.098 14.982 0 7.9906 6.8381 14.752 14.867 14.752 4.0721 0 8.2211-1.6903 10.987-4.6868 2.5739-2.8044 3.1117-5.993 3.0349-9.6425zm90.893-15.021h-1.844v25.278l-24.318-25.662v29.35h1.844v-24.894l24.318 25.854zm69.803 19.439 3.8801 9.5273h1.8824l-12.101-29.926-12.14 29.926h1.8824l3.8801-9.5273zm-0.6915-1.7287h-11.333l5.6856-13.984zm59.622-17.71h-1.844v28.966h9.2199v-1.7287h-7.376zm60.583 0h-1.844v28.966h1.844zm68.958 3.688c-1.383-2.4971-4.149-4.0721-7.0686-4.0721-4.341 0-7.4144 3.0349-7.4144 7.3375 0 2.305 1.0757 3.9953 2.9965 5.1862l5.2246 2.766c2.4971 1.2293 5.8393 2.6123 5.8393 5.8777 0 3.8416-3.3422 6.8381-7.1454 6.8381-3.4959 0-5.7625-2.1513-6.9918-5.2246l-1.6135 0.72991c1.3446 3.7264 4.4947 6.2235 8.5284 6.2235 4.6868 0 9.0663-3.6111 9.0663-8.4132 0-2.6123-1.1141-4.3795-3.3038-5.7625l-5.532-2.8812c-2.3434-1.1141-5.2246-2.3818-5.2246-5.4167s2.3434-5.532 5.4551-5.532c2.7276 0 4.5716 1.3446 5.8777 3.4191z" stroke-width=".26458" aria-label="SIGNALIS"/></g></svg>
