<?xml version="1.0" encoding="UTF-8"?>
<!-- Generator: Adobe Illustrator 16.0.2, SVG Export Plug-In . SVG Version: 6.00 Build 0)  -->
<!DOCTYPE svg PUBLIC "-//W3C//DTD SVG 1.0//EN" "http://www.w3.org/TR/2001/REC-SVG-20010904/DTD/svg10.dtd">
<svg version="1.0" id="Layer_1" xmlns="http://www.w3.org/2000/svg" xmlns:xlink="http://www.w3.org/1999/xlink" x="0px" y="0px" width="475px" height="475px" viewBox="0 0 475 475" enable-background="new 0 0 475 475" xml:space="preserve">
<g>
	<path fill="#0F011B" d="M313.57,83.59l113.26-65.4l0.061,43.4l-73.16,42.26l-3.98,0.76L313.57,83.59z"/>
	<path fill="#0F011B" d="M428.2,18.29l36.7,21.21L428.19,60.65L428.2,18.29z"/>
	<path fill="#0F011B" d="M428.11,62.22l36.9-21.5l0.18,86.01l-37.08-21.18V62.22z"/>
	<path fill="#0F011B" d="M390.74,83.75l36.05-20.891l0.021,41.94l-32.79-18.63L390.74,83.75z"/>
	<path fill="#0F011B" d="M313.4,84.67l35.17,20.53l1.021,1.109l-36.16,20.8L313.4,84.67z"/>
	<path fill="#0F011B" d="M352.03,106.26l36.391-20.94l0.13,42.2L352.12,148.6L352.03,106.26z"/>
	<path fill="#0F011B" d="M389.801,85.22l36.33,20.44l-36.391,21.26L389.801,85.22z"/>
	<path fill="#0F011B" d="M320.39,124.47l30.34-17.63l0.05,42.35l-36.35-20.87L320.39,124.47z"/>
	<path fill="#0F011B" d="M391.14,127.66l35.64-20.811l0.04,41.92L391.14,127.66z"/>
	<path fill="#0F011B" d="M428.171,106.88l36.189,20.74l-36.03,21.04L428.171,106.88z"/>
	<path fill="#0F011B" d="M314.37,171.58l74.011-42.311l0.02,42.09l-37.02,21.65l-33.971-19.29L314.37,171.58z"/>
	<path fill="#0F011B" d="M389.77,128.38l33.93,19.91l1.94,1.949l-35.87,20.391V128.38z"/>
	<path fill="#0F011B" d="M390.75,171.53l36.061-20.8v42.01L390.75,171.53z"/>
	<path fill="#0F011B" d="M428.211,151.13l35.449,20.75l-7.79,4.899l-27.68,15.94L428.211,151.13z"/>
	<path fill="#0F011B" d="M313.44,172.9l34.85,19.641l2.48,2.89l0.01,42.1l-37.34,21.61V172.9z"/>
	<path fill="#0F011B" d="M351.98,194.07l37.47-21.739l36.73,21.29l-7.78,4.79l-66.59,38.529L351.98,194.07z"/>
	<path fill="#0F011B" d="M428.75,193.68l36.11-20.94l0.41,3.801l-0.03,38.56L428.75,193.68z"/>
	<path fill="#0F011B" d="M351.7,238.51l75.78-43.87l36.83,21.23l-27.24,16.08l-85.22,49.3L351.7,238.51z"/>
	<path fill="#0F011B" d="M314.32,259.88l36.44-20.98l0.02,42.32l-33.75-19.39L314.32,259.88z"/>
</g>
<g>
	<path fill="#0F011B" d="M161.68,171.46l113.04-65.41l-0.07,43.39l-76,43.9L161.68,171.46z"/>
	<path fill="#0F011B" d="M275.72,106.39l36.71,21.13L275.8,148.77L275.72,106.39z"/>
	<path fill="#0F011B" d="M276.41,150.24l36.48-21.529l0.03,42.47L276.41,150.24z"/>
	<path fill="#0F011B" d="M245.1,167.99l30.319-17.149l36.24,20.79l-2.859,2.07l-32.44,18.64l-4.45-1.09l-33.14-18.87L245.1,167.99z"/>
	<path fill="#0F011B" d="M160.99,207.48l0.13-34.74l36.83,21.471l0.12,131.569L161.11,347.3L160.99,207.48z"/>
	<path fill="#0F011B" d="M233.11,174.88l3.28-1.521l0.09,42.11l-37.19,21.64v-42.56L233.11,174.88z"/>
	<path fill="#0F011B" d="M237.77,173.2l37.05,21.09l-0.05,42.859l-37.03-21.569L237.77,173.2z"/>
	<path fill="#0F011B" d="M203.75,235.77l33.58-19.14l35.26,20.57l1.04,1.1l-33.989,19.51l-3.881,0.73l-35.359-20.5L203.75,235.77z"/>
	<path fill="#0F011B" d="M275.79,238.45l36.57,21.05l-36.59,21.52L275.79,238.45z"/>
	<path fill="#0F011B" d="M199.29,238.78l33.62,19.33l2.68,2.15L199.27,281.1L199.29,238.78z"/>
	<path fill="#0F011B" d="M237.86,260.08l36.75-20.83l0.05,42.29l-36.85,21.159L237.86,260.08z"/>
	<path fill="#0F011B" d="M205.08,278.99l31.63-17.819l-0.01,41.609l-36.24-20.449L205.08,278.99z"/>
	<path fill="#0F011B" d="M276.7,281.59l36.21-20.87l-0.08,42.08L276.7,281.59z"/>
	<path fill="#0F011B" d="M199.31,282.78l34.26,19.61l2.12,1.82l-36.41,20.97L199.31,282.78z"/>
	<path fill="#0F011B" d="M199.24,326.59l76.18-44.11l34.251,19.851l2.42,1.899L199.29,369.4L199.24,326.59z"/>
	<path fill="#0F011B" d="M171.03,342.91l26.89-15.511l-0.01,41.69l-35.77-20.69L171.03,342.91z"/>
</g>
<g>
	<path fill="#0F011B" d="M113.93,199.04l8.34-4.62l0.02,43.06l-75.68,44L9.19,259.58L113.93,199.04z"/>
	<path fill="#0F011B" d="M123.66,236.6l0.15-42.03l35.239,20.391l0.23,1.029L123.66,236.6z"/>
	<path fill="#0F011B" d="M124.23,237.61l35.34-20.33v41.24l-32.9-19.03L124.23,237.61z"/>
	<path fill="#0F011B" d="M85.93,259.88l36.68-21.19l4.99,2.59l31.75,18.49l-2.33,2.01l-33.931,19.66L85.93,259.88z"/>
	<path fill="#0F011B" d="M8.46,260.91l34.71,19.84l2.59,2.68l0.021,130.34l-37.32,21.4V260.91z"/>
	<path fill="#0F011B" d="M85.27,261.2l37.27,21.17l0.01,42.739l-37.34-21.46L85.27,261.2z"/>
	<path fill="#0F011B" d="M49.4,281.15l34.52-19.8l0.03,42.34l-28.84,16.58l-8.25,4.431l0.04-41.11L49.4,281.15z"/>
	<path fill="#0F011B" d="M47.81,325.68l36.81-21l36.91,21.17l-2.62,1.99L84.8,347.49L47.81,325.68z"/>
	<path fill="#0F011B" d="M46.99,413.75l0.15-86.96L84.26,348.27v86.77L46.99,413.75z"/>
	<path fill="#0F011B" d="M17.48,431.48l28.279-16.22l0.061,42.04L9.47,436.409L17.48,431.48z"/>
	<path fill="#0F011B" d="M46.9,415.27l36.67,20.54l-3.24,2.39l-33.37,19.15L46.9,415.27z"/>
</g>
</svg>