<svg xml:space="preserve" style="enable-background:new 0 0 480.9 174.8;" viewBox="0 0 480.9 174.8" y="0px" x="0px" xmlns:xlink="http://www.w3.org/1999/xlink" xmlns="http://www.w3.org/2000/svg" id="_x31__copy_10" version="1.1">
<g>
	<path d="M450,115.5L450,115.5L450,115.5L450,115.5L450,115.5h-0.1l0,0H450z"></path>
	<path d="M127.2,45.1c0-5.8-0.3-6.6-0.8-8c-0.4-1.1-1.3-3.2-3.9-3.3c-2,0-4,2.1-5.2,3.4c-2.4,2.6-3.7,4.2-5.9,7.4
		c-1.7,2.5-4.3,7.9-5.1,10.9s-0.6,7.7-0.6,7.7v18.9c0.2,1.3,1.6-0.1,1.6-0.1l13.9-14.3c0,0,2.3-2.5,3.1-3.7c1.2-1.7,1.7-2.7,2.3-4.2
		c0.7-1.9,0.5-4.8,0.5-4.8L127.2,45.1L127.2,45.1z M121.9,59.5c-0.3,0.5-0.6,1.1-1.2,1.9c-0.5,0.7-1.8,2.3-2.7,3.2l-7.2,7.4v-2.9
		c0-1.9,0.2-3.5,0.4-4.5c0.6-2.4,2.9-7.2,4.3-9.3c2.1-3,3.3-4.5,5.4-6.8c0.2-0.2,0.4-0.5,0.7-0.8c0.1,0.8,0.2,2.2,0.2,5.2
		L121.9,59.5L121.9,59.5z"></path>
	<path d="M201.1,125.4c0-0.9-0.3-1.6-0.5-2.2c0-0.1,0-0.3,0-0.4c-0.3-2.2-1.2-3.4-1.7-4.2c0,0-0.1-0.2-0.2-0.3
		c-0.4-0.6-1.1-1.7-2.1-2.9c-0.8-1-2.5-3.1-5.9-3.1s-4.5,1.7-5.6,2.7c-0.1,0.1-0.2,0.2-0.4,0.4c-0.4,0.4-1.2,1.2-1.6,1.4
		c-0.2,0-0.7,0.1-1,0.1c0,0,0,0-0.2,0h-17V60.3l0,0c0-0.2-0.1-10.7-0.2-19.1c0-3.4,0-4.4,0-4.7c0.2-1.4,1-3.7,2.1-5.9
		c0.6-1.1,1.9-2.7,2.9-4s1.9-2.3,2.4-3.3s1-2,1.3-3.1c0,0,0.5-1.3,0.5-2.4c0-1.2,0-3.9,0-5.4c0-0.8,0-1.9-0.4-2.5
		c-0.1-0.2-0.3-0.4-0.5-0.6c0,0,0,0,0-0.1c-0.1-0.8-0.4-1.6-0.9-2.3c-0.8-1.3-2.2-2.1-3.8-2.4c-2.1-0.3-4.6,0.5-6.3,2
		c-0.1,0.1-0.3,0.2-0.5,0.4c-0.9,0.7-2.4,1.9-4.2,3.7c-2.6,2.6-6.3,6.5-8.5,9.9c-1,1.6-2,3.6-2.8,5.5c-0.5,1-1.1,2.5-1.4,2.9l0,0
		c-1.2,1.8-2.3,3.3-2.9,4.8c0-0.2-0.1-0.5-0.2-0.8c-0.2-1-0.5-2.3-0.8-3.8l-0.3-1.3c-1.7-7.3-3.8-11.3-7.5-13.6
		c-3.9-2.5-8.1-1.7-11.2-0.7c-4.1,1.3-9.9,5.9-12,7.9c-2.5,2.3-9.1,9.9-11.6,14.1c-2.4,4.1-6.5,14.5-7.5,18.1l0,0
		c-0.3,1-0.6,1.8-0.8,2.5c-0.8,3-0.9,7.9-0.9,10.5l0,0c0,1.4,0,2.4,0,2.7c0,1.9,0,3.5,0,3.9v25.6c-0.9-2.5-1.8-4.9-2.8-7.3
		c-3-7.3-8-12.4-11-15.4c-0.6-0.6-1-1.1-1.4-1.5c-1.3-1.4-4.5-4.4-7.9-7.6c-0.8-0.7-1.6-1.5-2.4-2.2c0.5-0.9,0.9-1.7,1.5-2.7
		c3.9-7.8,4.6-9.8,5.5-13.5c0.3-1.3,0.6-2.8,0.8-4.4V44c0.1,0,0.1-1.7,0.1-1.7c0-0.4,0-0.7,0-1.1v-4.1c0-2.1-0.2-4-0.7-5.5
		c-0.6-4.8-3.3-7.6-5.6-9c-6.8-4.3-15.7-5.9-22-6.5c-8.9-0.8-12.5-0.7-15.4-0.3c-2.5,0.3-5.4,0.9-7.8,3.5c-1.7,1.8-2.3,3.8-2.6,5.2
		c-0.9,2-1,3.8-1,4.3c0,27.1,0,95.2-0.1,106.5c-0.4,0.4-1.4,1.4-2.1,2.1c-0.8,0.8-1.7,1.6-2.2,2.2l0,0c-1.3,1.3-1.9,2.7-2.1,4.1
		c-0.8,1.4-0.9,2.7-0.8,3.7l0,0c0,0.5,0,0.9,0,1.3v2.7c0,0.4,0,0.8,0,1.2c0,0,0.2,1.1,0.3,1.5s0.6,1.2,0.6,1.2
		c0,0.1,0.2,0.3,0.2,0.4c1.3,1.9,3.3,3,5.5,3s0.8,0,1.3-0.1c1.5-0.3,2.7-1,4-1.8c1.6-1,2.6-1.3,2.9-1.4c2.6,0,18.3-0.2,23.5-0.2
		c9.2,0,21.7-1.2,28.3-2.6c4.4-1,9.9-3.3,13.5-7.1v8.6c0,0.1,0,0.3,0,0.4c0,0.3,0,0.7,0,1.1v0.3c0,0.4,0,0.9,0,1.3v2.1
		c0,0.1,0,0.3,0,0.4c0,1.8,0,4.6,2.6,6.2c0.9,0.5,1.8,0.8,2.8,0.8s1.6-0.2,2.3-0.6c1.1-0.6,3.1-2.2,4.1-3.6c1.2-1.7,1.3-3.6,1.3-5.3
		c0-0.5,0-1.1,0.1-1.4l0,0c0.2-1.3,0.4-2.3,1.7-4.3c1.4-2.1,1.6-2.4,3.1-4.1c0.3-0.3,0.5-0.5,0.8-0.8c0.6-0.6,1.4-1.4,2-2.6
		c0.5-1,0.7-2,0.6-3.7v-4.4c0-0.3,0-0.6,0-0.8v-24.2c0-0.4,0.2-1.4,0.3-1.8c0.2-0.4,0.3-0.6,0.4-0.7c1.3-1.3,6.6-6.9,8.7-9
		c0.6-0.6,1.3-1.3,1.9-1.9v34.2l0,0l0,0v0.2c0,0.2,0,0.4,0,0.6l0,0v0.7c0,0.2,0,0.5,0,0.7v3.1c0,2.6,0.9,4.5,2.9,5.5
		c1.8,1,4,0.8,5.7-0.5l0,0c1.7-1.3,3.5-2.8,4.1-5.2c0.2-0.7,0.3-1.5,0.4-3.2c0.1-1.2,0.3-3.1,0.5-3.8c0.3-1.2,1.5-3.9,2.6-5.3
		c0.7-0.9,1.5-1.8,2.3-2.6c1.5-1.6,2.4-2.6,2.8-3.9c0,1.4,0,2.6,0,3.8c0,4.1,0,6.8,0,7.1c0,2.2,0,4,0,5.5c0,0,0,0.1,0,0.2
		c-0.4,0.5-0.9,1.1-1.2,1.6c-0.3,0.3-0.5,0.6-0.7,0.8l0,0c-0.7,1-2.3,2.8-2.5,5.1c-0.6,1.1-1,2.5-0.8,4c0,0.5,0,0.9,0,1.4v2.5
		c0,0.5,0,0.6,0,1s0.3,1.4,0.6,2c0.2,0.5,0.9,1.6,1.3,2.1c1.4,1.4,3,1.9,4.5,1.9s3.2-0.6,4.5-1.6c0.8-0.6,1.4-1.2,2.8-2.6l0.9-1
		c1.2-1.3,3.5-3.4,4.5-4.2c1.3-1,3.4-2.3,4.2-2.6c1.5-0.5,3.5-0.5,4.1-0.4h0.3h0.3c5.8,0,14.9,0,17.8,0c2.2,6.2,3.6,9.6,7.3,10.2
		c1.3,0.2,4.6,0.2,6.5-4.5c0.4-0.9,0.7-2.1,1.1-3.6c0.4-1.4,0.7-3,1-4.2c0,0,0,0,0.1-0.1c1.7-1.8,1.8-4.1,1.8-5.1c0-0.4,0-1.8,0-3.2
		c0-0.2,0-0.4,0-0.6c0-0.2,0-0.4,0-0.8c0-0.2,0-0.4,0-0.5c0-1.1,0-5.3-0.2-7.1L201.1,125.4z M87.6,130.7c-1.6,4.6-8,7.8-13.1,9
		c-6.4,1.4-18.5,2.5-27.2,2.5s-23.9,0.2-23.9,0.2s-1.7,0-5.2,2.2c-1.8,1.2-2.9,1.7-3.8,0.4c-0.7-1,0.3-1.7,0.7-2.2
		c1.2-1.3,4.1-4,4.7-4.7c0.5-0.6,1.3-1,1.6-3.6c0.1-1.1,0.2-108.3,0.2-108.3s0-2,1.5-3.7c1.2-1.3,2.6-1.8,5.1-2.1
		c2.5-0.3,5.7-0.4,14.4,0.3c7.2,0.6,14.6,2.4,20,5.8c4.9,3.1,3.8,9.3,2.9,13.2c-0.7,2.9-1.1,4.6-5,12.3c-1.4,2.7-2.6,4.6-4.2,7.8
		c-0.7,1.3-1.2,2.1-0.8,3.5c0.3,0.8,12.5,11.7,15,14.5c2.5,2.7,8.4,7.7,11.5,15.6c2.7,6.7,5.6,14.6,6.3,21.5
		C88.8,120,89.5,125.3,87.6,130.7L87.6,130.7z M138.4,108.4c-0.1,0.6-2.5,2.8-4.2,5s-3.1,5.5-3.6,7.3c-0.4,1.8-0.7,6.1-0.9,7
		s-1.6,1.9-2.2,2.2c-0.5,0.4-0.4-0.1-0.4-1V80.2c0,0,0-1.4-1-1.2c-1.3,0.2-9.8,8.9-9.8,8.9s-8,8.3-8.9,9.3c-0.2,0.2-0.6,0.8-1.1,1.9
		c-0.5,1-0.7,3.4-0.7,3.9v29.5c0,0,0,1.1,0,1.3c-0.4,0.7-1.1,1.1-2.1,2.3c-1.7,1.9-2.1,2.5-3.6,4.8c-1.9,2.9-2.2,4.5-2.5,6.1
		s0,3.9-0.6,4.7c-0.5,0.7-1.9,1.8-2.2,2s-0.2-1.4-0.2-2.3s0-86.2,0-86c0,0-0.2-7.2,0.7-10.5s4.8-13.2,7.1-17
		c2.2-3.8,8.6-11.1,10.8-13.1s7.3-6,10.3-6.9c3.1-1,5.4-1.1,7.4,0.2c2.1,1.3,3.9,3.6,5.6,10.9c1.6,7.2,1.7,7.2,2.2,14.3s0,64,0,64
		s0,0.7,0,1.2L138.4,108.4z M195.7,131.4c-0.6,0.7-0.9,0.3-1,1c-0.3,1.6-1.9,9.9-2.9,9.7c-1.1-0.2-3.6-8.1-4.1-9.5
		c-0.4-0.9-1.4-0.7-2.8-0.8c-1,0-19,0-19,0s-3.4-0.4-6.3,0.6c-1.7,0.6-4.4,2.3-5.7,3.4s-3.9,3.5-5,4.6c-2,2-2.5,2.6-3.1,3
		c-0.9,0.6-1.7,0.9-2.5,0c-1-1.1,1.1-3.3,1.4-3.8c0.6-0.8,2-2.3,2.8-3.7c1-1.9,0.9-3.1,0.9-4.1c0-2.1,0-4.4,0-5.7s0.2-69.4,0.1-69.3
		V41.4c0,0,0-1.4-1.1-2.5c-0.7-0.6-1.9-0.9-1.8-2.2c0-1.3,1.4-3.1,2.9-5.2c1-1.5,2.8-6.1,4.3-8.5c2.1-3.2,5.7-7,8-9.2
		c2.2-2.2,4-3.5,4.6-4c1-0.9,2.9-1.2,3.3-0.5c0.5,0.7,0.5,1.5-0.8,3.7c-0.7,1.4-3.9,4.7-5.3,7.4c-1.4,2.7-2.3,5.7-2.6,7.6
		c-0.3,1.9,0,29.6,0,29.6v60.9c0,0,0,1,0.6,1.6c1.1,1.2,2.4,1.3,2.4,1.3h19.1c0,0,2.1,0,3.4-0.7c0.6-0.4,1.6-1.3,2.4-2.1
		c1-1,1.7-1.8,2.8-1.8s1.6,0.4,2.4,1.4c0.7,0.9,1.4,1.9,1.7,2.4c0.5,0.8,1.1,1.2,1.2,2.6c0.2,1.6,0.1,6.6,0.1,6.6
		S196.1,130.8,195.7,131.4L195.7,131.4z"></path>
	<path d="M72.8,99.1c-1-2.9-5.1-10.1-6.7-12.3c-1.4-1.9-5-5.8-7.7-8.2c-2.7-2.5-6.2-4.1-9.1-4s-4.3,1.4-5.7,3
		c-1.3,1.6-3.1,4.1-4.5,6.7c-1.6,3-1.8,7-1.8,7v4c0,0,0,28.2,0,29.7c0,3.1,0.5,4.7,1.3,5.4s2.2,0.9,5.7,0.9H58
		c5.6,0,8.5-0.8,11.6-2.1c3.3-1.4,6-3.2,7-6.3c0.9-2.7,0.4-7.8-0.2-10.9c-0.6-3-2.3-10.2-3.4-13.1L72.8,99.1z M67.7,125.1
		c-2.7,1.1-5.1,1.7-9.9,1.7H44.1c-0.8,0-1.4,0-1.9,0v-0.2c0-13.7,0-22,0-23.3c0-1.7,0-3.1,0-4c0-1.1,0.4-3.2,1.2-4.7
		c1.4-2.6,3.2-5,4-5.9c0.9-1.1,1-1.1,1.9-1.1c1.2,0,3.4,0.7,5.4,2.6c2.7,2.4,6,6,7,7.5c1.4,1.9,5.2,8.7,6,11
		c0.9,2.5,2.6,9.4,3.2,12.3c0.1,0.6,0.2,1.3,0.3,2c-0.6,0.6-1.7,1.4-3.6,2.2L67.7,125.1z"></path>
	<path d="M37.8,70.2c1.4-0.8,5.5-5.3,7-7.4c1.4-1.9,3.7-5.3,5.7-9.3c1.9-3.8,3.4-6.8,3.7-10.9c0.3-3.7,0-6.5-1.7-9.3
		s-4.4-4.8-7.1-5.3c-2.8-0.4-7-0.6-8.3,0.5s-1.2,4-1.2,4v36.3C35.9,70.2,37.2,70.4,37.8,70.2L37.8,70.2z M41,40.8
		c0.9,0,2.2,0,3.5,0.3c1.2,0.2,2.6,1.3,3.5,2.8c0.4,0.7,0.7,1.3,0.8,2.1c0,0.3-0.1,0.6-0.2,0.9c-0.5,1.3-1.2,2.6-1.9,4.2l-0.2,0.4
		c-2,4.1-4.3,7.4-5.2,8.6c0,0.1-0.2,0.3-0.3,0.4L41,40.8L41,40.8z"></path>
	<path d="M471.5,33.4L471.5,33.4c0-1.1-0.3-3-1.1-5.3c-0.5-2.6-1.7-6.4-4.6-9.8c-2.6-3.1-6.2-5.6-9.7-6.8c-3.4-1.2-5.9-1.7-11.3-1.8
		c-5.1,0-7.2,0.2-10.6,0.8h-0.3c-4.6,0.7-8.2,1.6-12.4,3.7c-6.8,3.5-10.2,9.1-11.7,12.1c-0.6,1.3-1.1,2.8-1.4,4.4
		c-1.5,4.5-1.4,10.1-1.4,11.5v3.5c0,0.8,0,1.4,0,1.6v13.2c0,0,0.1,21.4,0.3,37.9c-0.2-0.6-0.5-1.3-0.7-1.9c-0.1-0.4-0.3-0.7-0.4-1.1
		c-1.3-3.2-3.2-6.4-5-9.2c-0.3-0.4-0.5-0.8-0.8-1.3c-0.6-1.1-1.6-2.4-2.7-3.7c0.2-0.5,0.5-1,0.8-1.6c1.2-2.5,2.9-5.9,3.7-7.4
		c1.5-2.8,3.8-9.4,4.3-14c0-0.4,0.1-0.8,0.1-1.2v-1.1c0-0.6,0-1.1,0-1.6v-2.5c0-0.3,0-0.7,0-1c0-2,0-4.4-1-6.9
		c-0.4-2.5-1.5-5.3-4-8.3c-4.1-4.8-9.8-6.3-12.9-7.1c-3.1-0.8-10.6-2-12.9-2.3c-1.1-0.2-2.5-0.3-3.9-0.4c1.3-2.4,2.1-4.8,2.2-5.6
		c0-0.3,0.1-0.6,0.2-1l0,0c0,0,0,0,0-0.1c0-0.2,0-0.4,0-0.6v-4.7c0-1.1-0.2-2.2-0.7-3.1c0-2.1-1.2-4-3.1-4.8
		c-2.1-0.9-4.6-0.4-6.3,1.3c-0.8,0.8-2.5,2.3-4.2,3.4s-3.4,2-5.6,2.7h-0.3c-1.2,0.5-2.7,1.1-10.7,1.1s-40.4,0-40.8,0c0,0,0,0-0.1,0
		c0,0-1.8,0-3.3,0c-0.4-0.3-0.9-0.8-1.3-1.2c-0.2-0.2-0.3-0.3-0.5-0.5c-0.4-0.4-1-1.1-1.6-1.7c-0.7-0.8-1.2-1.4-1.7-1.8l0,0
		c-0.8-0.8-3.3-3-6.7-2.2c-4.5,1-6.6,7.2-7.2,9.1c-0.2,0.6-0.3,1.3-0.5,1.9c0,0.3-0.2,0.5-0.2,0.7c-0.6,2.2-0.9,4.5-0.9,6.8
		c0,0.5,0,0.9,0,1.5v2.6c0,0.4,0,0.8,0,1.2v0.9c0,0.5,0,0.9,0.2,1.4c0,0.3,0.1,0.7,0.2,1c0.2,1,0.8,3.2,1.7,5.2
		c1.8,4,4.2,6.1,7.3,6.2c3.5,0.1,5.5-1.7,6.5-2.7c0.2-0.2,0.5-0.4,0.5-0.5c0.5-0.3,0.5-0.3,2.2-0.4h0.3c0.4,0,2,0,3.9,0v103.9v0.2
		v1.3v0.2v3.6c0,1.6,0.7,3.1,2,4.1c1.2,1,2.9,1.3,4.4,1c4.4-1,5.6-2.7,6-3.3c1.2-1.6,2.2-5.2,2.7-7.1c0.4-1.7,1.8-6.3,2.6-9
		c0.3-1.1,0.6-2,0.7-2.6c0.2-0.9,0.2-0.9,0.3-1.1c0.3-0.4,0.5-0.7,0.7-1c0.5-0.7,0.7-0.9,0.8-1c1.1-0.8,2.5-2,2.7-2.2
		c1.2-1,1.9-2.6,1.8-4.1V120c0-0.4,0-0.9-0.1-1.3c0,0-0.5-2.4-1.2-5.5c-0.7-3.5-1.5-8.5-1.5-11.2V41.9c2.8,0,8.7,0,13.4,0
		c0.5,0.6,1,1.3,1.6,1.8c2.5,2.2,5.2,1.8,7.4,1.2v1.3c0,0.3,0,0.6,0,0.8v1.9c0,0,0,0.2,0,0.3c0,0.2,0,0.5,0,0.8c0,0.7,0,1.6,0,2.9
		c0,2.5,0,6,0,10.3c0,7.7,0,18.6,0,32.4c0,26,0,56.4,0,65.1v4.5c0,1.5,0.6,2.8,1.7,3.8c1,0.9,2.2,1.3,3.5,1.3s0.3,0,0.5,0
		c1.1-0.1,3.2-0.6,5.4-3c1.9-2.1,2-4.2,2.1-5.4c0-0.3,0-0.5,0-0.8c0.3-2,0.6-2.4,1.1-3c0.3-0.3,0.7-0.9,1.2-1.6
		c0.7-0.9,1.8-2.5,2.2-3c1-1.2,2.1-2.9,2.8-4.1c1.1-1.9,1.3-4.6,1.3-6l0,0v-3.6v-0.1c0,0,0,0,0-0.1v-1c0-0.2,0-0.3,0-0.3l0,0
		c0,0,0-6.7,0-12.4c0-1.8,0-2.5,0-2.8c0-0.2,0-0.5,0-0.7c0-0.6,0-1.8,0.4-3c0.5-1.5,2.4-3.6,3.3-4.7c1.2-1.4,5.5-5.7,6.8-6.9
		c1.2-1.1,1.8-1.6,2.2-1.8c0.4,0.3,1.2,1,2.2,2.4l0,0c4.5,6.2,5.6,8.6,5.8,9.5c0,0.3,0.3,1.1,0.3,2.8v3.3c0,0,0,0.1,0,0.2v26.2
		c0,1.8,1,3.4,2.5,4.3c1.5,0.9,3.3,1.1,4.9,0.3c1-0.5,2.9-1.5,4-3.1c1.4-2,1.5-3.8,1.6-5c0-0.3,0-0.6,0-0.8c0-0.4,0-0.8,0.1-1.1
		c0-0.8,0-0.8,0.4-1.5c0.5-1,1.2-2,2.4-3.4c0.9-1.1,1.9-2.1,2.7-2.9c0.3-0.3,0.6-0.6,0.8-0.8c0.5-0.6,1-1.2,1.3-1.8
		c1.6,4,4,7.3,7.1,9.7c5.1,3.9,10.8,5.8,17.8,5.8s15.4-2.1,18.7-3.4c4.4-1.7,10.4-5,13.9-9.5c2.9-3.7,4.5-7.8,4.8-12.4
		c0.2-3.1,0.2-7.5,0.2-7.6V44.3c0-3.6-0.3-8.3-0.5-10.8L471.5,33.4z M344.8,31.8c-2,0.6-2.5,0.3-2.9,0s-1.2-1.5-1.6-2.2
		c-0.5-0.8-1.4-0.9-1.4-0.9s-15.2,0-16.9,0c-1.7,0-2.2,0.2-2.9,1c-0.7,0.8-0.7,2.1-0.7,2.1v67.3c0,3.6,1,9.2,1.6,12.3
		c0.7,3.1,1.2,5.5,1.2,5.5s-1.4,1.2-2.4,1.9s-1.4,1.4-2.6,3s-1,2.5-1.8,5.2c-0.9,2.7-2.2,7.4-2.7,9.3c-0.5,1.8-1.3,4.6-1.8,5.3
		s-3,1.3-3,1.3V32.8c0,0,0-2.5-0.6-3.5c-0.4-0.8-1.7-0.7-1.7-0.7s-6.6,0-7,0c-2.2,0.2-3.1,0.2-4.6,1c-1.8,0.9-2.3,2.6-4.5,2.6
		s-3.8-5.8-4.1-7.3c-0.4-1.9-0.4-4.7,0.4-7.5c1-3.3,2.7-5.7,3.9-5.9c1.2-0.3,2.2,0.7,2.8,1.2s2,2.3,3.1,3.4c1,1,2.6,2.8,4.3,2.9
		s4,0,4,0s37.4,0,40.7,0c9.2,0,10.7-0.7,12.4-1.3c2.6-0.9,4.7-1.9,6.7-3.3c1.8-1.3,3.8-2.9,4.9-4c0.8-0.9,1.9-0.3,1.6,0.8
		c0,0.4-1,3.3-2.5,5.6c-1.2,1.9-3.6,5-6.7,7.2c-6.4,4.7-13.1,7.3-15.1,7.9L344.8,31.8z M404.4,124.8c-0.7,0.7-2.3,2.2-3.7,4
		c-1.4,1.7-2.4,3.1-3,4.4c-0.9,1.9-0.8,2.7-1,4.2c-0.2,1.6,0,2.4-0.8,3.6c-0.5,0.7-2,1.4-2,1.4v-26.2c0,0,0.2-4.9-0.6-7.7
		c-0.9-3.3-5.2-9.2-6.7-11.2c-2.3-3.2-4.5-4.6-6.3-4.6s-3.5,1.2-5.8,3.3c-1.3,1.2-5.8,5.7-7.1,7.3c-1.4,1.6-3.5,4-4.3,6.5
		c-0.8,2.4-0.7,4.7-0.7,4.9c0,0.2,0,20.8,0,20.8s0,2.4-0.6,3.5c-0.3,0.5-1.3,2.3-2.2,3.3c-0.9,1-2.9,3.9-3.6,4.8
		c-1.1,1.4-1.7,2.8-2.1,5.4c-0.3,1.7,0.1,2.4-0.8,3.4c-1.2,1.3-2.1,1.4-2.1,1.4s-0.1-110.9,0-110.9v-7.3c0,0-0.3-4.2,2.7-6.5
		c2.6-2,6.1-2.3,7.6-2.3c2.4,0,9.9,0,13.9,0.5c2.4,0.3,9.6,1.5,12.4,2.2s7.4,1.9,10.6,5.7s3.4,7.2,3.1,11.1s-2.5,9.9-3.8,12.3
		s-4.4,8.9-5.2,10.6c-0.8,1.6-1.4,3-2.2,4.6c-0.3,0.6-0.7,1.1-0.6,1.4s0.4,0.7,0.9,1.3c1.5,1.7,4.8,5.4,6.1,7.6
		c1.8,2.9,4.1,6.5,5.4,9.8s3,6.9,3.1,11.1s0.2,14.9,0.2,14.9s0,0.8-0.8,1.8V124.8z M466.8,109.2c0,0,0,4.4-0.2,7.3
		c-0.2,3.4-1.3,6.5-3.7,9.6c-2.9,3.7-8.1,6.5-11.6,7.8c-4.2,1.6-10.3,3-16.9,3s-11-1.9-14.6-4.7c-3.8-3-6.6-8.2-7.1-15.1
		c-0.1-2.1,0-6.5,0-8s-0.4-56.7-0.4-56.7V39.2c0,0-0.2-7.2,1.6-11c1.6-3.2,4.6-7.4,9.7-10.1c3.7-1.9,7-2.6,11-3.2
		c3.5-0.5,5.4-0.8,10.2-0.8c4.9,0,6.8,0.5,9.9,1.6c2.5,0.9,5.5,2.8,7.7,5.5c2.7,3.3,3.7,7.2,3.9,9.8c0.2,2.4,0.5,7.1,0.5,10.4v67.7
		V109.2z"></path>
	<path d="M376.4,38.7c-4-0.6-10.1-0.8-12,0.6c-1.9,1.4-1.7,4.9-1.7,4.9v45.1c0,1.8,1.8,2,2.7,1.6c2-0.9,7.9-6.5,10.2-9.1
		c2-2.4,5.3-6.2,8.1-11.2c2.7-4.7,4.6-10.1,5.2-14.5c0.6-4.5,0.2-7.3-2.2-10.8c-2.4-3.5-6.3-6-10.3-6.5L376.4,38.7z M383.6,59.7
		c-0.9,2.9-2.1,5.9-3.7,8.6c-2.5,4.3-5.2,7.8-7.6,10.5c-1.1,1.2-2.7,2.9-4.4,4.4V51.5c0.2,0,0.5,0,0.7,0h0.3c0.3,0,1.8-0.2,4.5,0
		c2.3,0.2,3.3,0.5,4.1,0.7c0.7,0.2,2.2,1,3.2,1.9c1.1,1,1.3,1.3,1.9,2.1l0.2,0.3c0.4,0.5,0.9,1.6,1,2c0,0,0,0.1,0,0.2
		c0,0.4-0.1,0.7-0.2,1.1V59.7z"></path>
	<path d="M455.2,39.1c-0.1-4.1-0.3-6.3-1-8.4c-0.6-2-1.8-4-4.8-5.3c-2.3-1-4.9-1.2-7.9-0.9c-3.9,0.3-6.5,0.9-9.3,2.2
		c-2.1,1-4.3,2.7-6.3,5c-2.3,2.8-2.1,7.3-2.1,7.3v13.5c0,0,0,62.1,0,63.3c0,2.6,0.9,4.4,2.5,6.3c1.7,1.9,3.8,3.3,6.9,3.5
		c4.1,0.3,7.5,0.5,12.8-1.5c2.2-0.8,5.4-2.8,7.1-5c2.4-3,2-6.8,2-6.8S455.1,41.9,455.2,39.1L455.2,39.1z M450,115.8
		c-0.1,0.2-0.2,0.4-0.4,0.6c-1.2,1.5-3.5,3-5.2,3.6c-4.4,1.6-7,1.4-10.9,1.2h-0.1c-1.6-0.1-2.7-0.7-3.9-2c-0.3-0.3-0.5-0.6-0.7-0.9
		V60.5v-14c0-1.5,0.4-2.9,0.9-3.5c1.4-1.7,3-3,4.5-3.7c2.1-1,4.1-1.4,7.6-1.8c2.3-0.2,4.1,0,5.4,0.5c1.2,0.5,1.5,1,1.9,2.1
		c0.5,1.4,0.6,3,0.7,7c0,0.4,0,3.3,0,17.7c0,21.5,0,50.3,0,50.3v0.6L450,115.8z M450.1,115.6L450.1,115.6L450.1,115.6L450.1,115.6
		h0.1l0,0H450.1z"></path>
</g>
<g>
	<path d="M293.5,129.2l-15-102.4c0,0-0.5-2.2-2.2-3.5c-1.6-1.2-4.5-1.1-4.7-1.1l-73,1.4c-0.1,0-2.7,0.1-4.2,1.6
		c-1.8,1.7-1.5,4.4-1.5,4.5l7.1,105.2c0,0.4,0,2.5,1.9,4c1.4,1,3,1.2,4,1.2s0.6,0,0.7,0l82.4-4.8c0,0,2.3-0.2,3.8-2
		C294.1,131.7,293.6,129.3,293.5,129.2L293.5,129.2z M292.1,132.9c-1.3,1.6-3.3,1.8-3.3,1.8l-82.4,4.8c0,0-2.5,0.3-4.2-1
		c-1.8-1.4-1.6-3.5-1.6-3.5l-7.1-105.3c0,0-0.2-2.4,1.3-3.9c1.4-1.3,3.7-1.4,3.7-1.4l73-1.4c0,0,2.8-0.2,4.3,0.9
		c1.5,1.2,1.9,3.1,1.9,3.1l15,102.4c0,0,0.4,2.2-0.7,3.5H292.1z"></path>
	<path d="M277.7,27c0,0-0.4-1.9-1.9-3.1c-1.4-1.1-4.3-0.9-4.3-0.9l-73,1.4c0,0-2.4,0-3.7,1.4c-1.6,1.5-1.3,3.9-1.3,3.9l7.1,105.3
		c0,0-0.1,2.1,1.6,3.5c1.8,1.4,4.2,1,4.2,1l82.4-4.8c0,0,1.9-0.1,3.3-1.8c1.1-1.4,0.7-3.5,0.7-3.5L277.8,27L277.7,27z M291.6,132.4
		c-1.1,1.4-2.8,1.5-2.8,1.5l-82.4,4.8l0,0c0,0-2.2,0.3-3.7-0.9c-1.4-1.1-1.4-2.8-1.3-2.8l0,0l-7.1-105.4c0,0-0.2-2.1,1.1-3.3
		c1.1-1.1,3.2-1.2,3.3-1.2l73-1.4l0,0c0.1,0,0.3,0,0.5,0c0.9,0,2.5,0.1,3.3,0.8c1.3,1,1.6,2.6,1.6,2.6l0,0l15,102.4
		C292.1,129.5,292.5,131.4,291.6,132.4z"></path>
</g>
<path d="M256.4,71.5c-3.8-2.6-9.5-6.9-11.9-10.6s-4.3-10.5-4.3-10.5h-1.7c0,0.1-0.5,8.7-4.8,14.6c-4.4,6-14.9,12.3-13.9,19
	s4.1,7.2,6.7,7.9s7.4,0.2,9.6-1.7s3.8-4.6,4.2-5.4l0.9,9.1c0,0,0.5,1.3-2.4,3.6c-2.9,2.3-7,2.9-7,2.9v1.1l23.7-1.5l-0.3-1.2
	c0,0-3.4-0.3-6.3-1.6s-3.3-3.1-3.6-3.7c-0.2-0.4-0.8-5.6-1.1-9.3c1.2,1.7,3,4.2,4.4,5c3,1.8,6.7,2,9.5,1.1c2.8-0.9,5.7-3.2,5.9-6.8
	c0.3-6.3-4-9.4-7.7-12H256.4z"></path>
<path d="M206.7,44.5c-0.9-0.6-2.1-1.6-2.6-2.3s-1.1-2.4-1.1-2.4h-0.3c0,0-0.3,2.3-1.2,3.3c-1.1,1.3-3.3,2.8-3,4.2
	c0.2,1.1,0.6,1.6,1.5,1.7c0.8,0.1,1.7,0.1,2.2-0.3c0.5-0.3,0.8-1,0.9-1.2l0.2,2c0,0,0,0.3-0.6,0.8c-0.7,0.5-1.5,0.7-1.5,0.7v0.2
	l5.5-0.4v-0.3c0,0-1,0-1.6-0.4s-0.7-0.6-0.8-0.7c0,0-0.1-1.1-0.2-1.9c0.3,0.4,0.6,0.8,0.9,1c0.7,0.4,1.5,0.4,2.1,0.2
	s1.3-0.5,1.3-1.5C208.4,45.8,207.5,45.1,206.7,44.5L206.7,44.5z"></path>
<path d="M278.1,112.3c0.9,0.6,2.1,1.6,2.6,2.3s1.1,2.4,1.1,2.4h0.3c0,0,0.3-2.3,1.2-3.3c1.1-1.3,3.3-2.8,3-4.2
	c-0.2-1.1-0.6-1.6-1.5-1.7c-0.8-0.1-1.7-0.1-2.2,0.3c-0.5,0.3-0.8,1-0.9,1.2l-0.2-2c0,0,0-0.3,0.6-0.8c0.7-0.5,1.5-0.7,1.5-0.7v-0.2
	l-5.5,0.4v0.3c0,0,1,0,1.6,0.4s0.7,0.6,0.8,0.7c0,0,0.1,1.1,0.2,1.9c-0.3-0.4-0.6-0.8-0.9-1c-0.7-0.4-1.5-0.4-2.1-0.2
	c-0.6,0.2-1.3,0.5-1.3,1.5C276.4,111,277.3,111.7,278.1,112.3L278.1,112.3z"></path>
<path d="M285.9,129.8h-3.2c0,0.1-3.8-9.7-3.8-9.7h1.6l0.8,2l3.8-0.2l0.3-2.2h1.6L285.9,129.8L285.9,129.8z M285,123.4h-3.2
	c0,0.1,1.9,5.1,1.9,5.1h0.7L285,123.4z"></path>
<path d="M200.1,27.8h3.2l3.5,9.9h-1.6l-0.8-2.1h-3.8l-0.3,2.2h-1.6L200.1,27.8L200.1,27.8z M200.7,34.2h3.2l-1.7-5.1h-0.7l-0.7,5.1
	H200.7z"></path>
</svg>
