<svg xmlns="http://www.w3.org/2000/svg" fill="#111" viewBox="0 0 16 16">
 <path id="path4" d="m14.7 5.34c0.13-0.32 0.55-1.59-0.13-3.31 0 0-1.05-0.33-3.44 1.3-1-0.28-2.07-0.32-3.13-0.32s-2.13 0.04-3.13 0.32c-2.39-1.64-3.44-1.3-3.44-1.3-0.68 1.72-0.26 2.99-0.13 3.31-0.81 0.87-1.3 1.99-1.3 3.35 0 5.15 3.33 6.31 7.98 6.31s8.02-1.16 8.02-6.31c0-1.36-0.49-2.48-1.3-3.35zm-6.7 8.68c-3.3 0-5.98-0.15-5.98-3.35 0-0.76 0.38-1.48 1.02-2.07 1.07-0.98 2.9-0.46 4.96-0.46 2.07 0 3.88-0.52 4.96 0.46 0.65 0.59 1.02 1.3 1.02 2.07 0 3.19-2.68 3.35-5.98 3.35zm-2.51-5.01c-0.66 0-1.2 0.8-1.2 1.78s0.54 1.79 1.2 1.79c0.66 0 1.2-0.8 1.2-1.79s-0.54-1.78-1.2-1.78zm5.02 0c-0.66 0-1.2 0.79-1.2 1.78s0.54 1.79 1.2 1.79c0.66 0 1.2-0.8 1.2-1.79s-0.53-1.78-1.2-1.78z"/>
</svg>
