<?xml version="1.0" encoding="UTF-8"?>
<svg width="171.95" height="52" version="1.1" viewBox="0 0 171.95 52" xmlns="http://www.w3.org/2000/svg"><g transform="translate(-50.787 -47.635)"><g transform="matrix(3.7795 0 0 3.7795 -140.16 -131.4)" stroke-width=".070004" aria-label="FORDÍTÁSOK"><path d="m52.147 53.768v-2.6087h2.2378v-1.2364h-3.5978v8.6546h1.36v-3.5731h1.7556v-1.2364z"/><path d="m54.929 52v4.5004c0 1.3847 0.72946 2.176 2.0647 2.176 1.3353 0 2.0647-0.79128 2.0647-2.176v-4.5004c0-1.3847-0.72946-2.176-2.0647-2.176-1.3353 0-2.0647 0.79128-2.0647 2.176zm1.36 4.5869v-4.6735c0-0.61818 0.272-0.8531 0.70473-0.8531 0.43273 0 0.70473 0.23491 0.70473 0.8531v4.6735c0 0.61818-0.272 0.8531-0.70473 0.8531-0.43273 0-0.70473-0.23491-0.70473-0.8531z"/><path d="m62.78 58.577h1.3847c-0.136-0.32146-0.14836-0.63055-0.14836-1.0509v-1.3353c0-0.90255-0.22255-1.5578-0.90255-1.8422 0.60582-0.28436 0.89019-0.86546 0.89019-1.7556v-0.68c0-1.3353-0.60582-1.9906-2.0153-1.9906h-2.0524v8.6546h1.36v-3.5237h0.46982c0.61818 0 0.89019 0.29673 0.89019 1.1004v1.36c0 0.70473 0.04945 0.84073 0.12364 1.0633zm-1.4836-7.4182h0.65528c0.48218 0 0.69237 0.272 0.69237 0.89019v0.8531c0 0.69237-0.30909 0.91491-0.816 0.91491h-0.53164z"/><path d="m64.906 49.923v8.6546h2.1513c1.36 0 2.0276-0.75419 2.0276-2.1389v-4.3768c0-1.3847-0.66764-2.1389-2.0276-2.1389zm1.36 1.2364h0.76655c0.43273 0 0.69237 0.22255 0.69237 0.84073v4.5004c0 0.61818-0.25964 0.84073-0.69237 0.84073h-0.76655z"/><path d="m72.089 48.093h-1.3353l-0.84073 1.3724h0.91491zm-2.1389 1.8298v8.6546h1.36v-8.6546z"/><path d="m71.904 49.923v1.2364h1.4218v7.4182h1.36v-7.4182h1.4218v-1.2364z"/><path d="m80.175 48.093h-1.3353l-0.84073 1.3724h0.91491zm0.92728 10.484-1.3847-8.6546h-1.9906l-1.3847 8.6546h1.2487l0.23491-1.5702h1.6691l0.23491 1.5702zm-3.1033-2.7447 0.65528-4.3767 0.65528 4.3767z"/><path d="m81.56 52c0 2.4727 2.6582 2.8066 2.6582 4.5869 0 0.61818-0.272 0.84073-0.70473 0.84073-0.43273 0-0.70473-0.22255-0.70473-0.84073v-0.61818h-1.2858v0.53164c0 1.3847 0.69237 2.176 2.0276 2.176 1.3353 0 2.0276-0.79128 2.0276-2.176 0-2.4727-2.6582-2.8066-2.6582-4.5869 0-0.61818 0.24727-0.8531 0.68-0.8531 0.43273 0 0.68 0.23491 0.68 0.8531v0.35855h1.2858v-0.272c0-1.3847-0.68-2.176-2.0029-2.176-1.3229 0-2.0029 0.79128-2.0029 2.176z"/><path d="m86.246 52v4.5004c0 1.3847 0.72946 2.176 2.0647 2.176 1.3353 0 2.0647-0.79128 2.0647-2.176v-4.5004c0-1.3847-0.72946-2.176-2.0647-2.176-1.3353 0-2.0647 0.79128-2.0647 2.176zm1.36 4.5869v-4.6735c0-0.61818 0.272-0.8531 0.70473-0.8531 0.43273 0 0.70473 0.23491 0.70473 0.8531v4.6735c0 0.61818-0.272 0.8531-0.70473 0.8531-0.43273 0-0.70473-0.23491-0.70473-0.8531z"/><path d="m93.033 55.128 1.3229 3.4495h1.3971l-1.8916-4.7971 1.8916-3.8575h-1.36l-1.7804 3.7709v-3.7709h-1.36v8.6546h1.36v-2.6582z"/></g></g></svg>
