<?xml version="1.0" encoding="iso-8859-1"?>
<!-- Uploaded to: SVG Repo, www.svgrepo.com, Generator: SVG Repo Mixer Tools -->
<!DOCTYPE svg PUBLIC "-//W3C//DTD SVG 1.1//EN" "http://www.w3.org/Graphics/SVG/1.1/DTD/svg11.dtd">
<svg fill="#000000" height="800px" width="800px" version="1.1" id="Capa_1" xmlns="http://www.w3.org/2000/svg" xmlns:xlink="http://www.w3.org/1999/xlink" 
	 viewBox="0 0 389.683 389.683" xml:space="preserve">
<path d="M316.119,98.841H73.564C27.517,98.841,0,147.74,0,194.841s27.517,96,73.564,96h242.555c46.047,0,73.564-48.898,73.564-96
	S362.166,98.841,316.119,98.841z M99.216,197.546c0,5.121-4.141,9.295-9.23,9.295H75.93c-1.712,0-2.714,1.438-2.714,3.15v14.056
	c0,5.09-4.61,8.794-9.731,8.794h-4.592c-5.214,0-9.678-3.704-9.678-8.794v-14.056c0-1.742-1.119-3.15-2.767-3.15H31.446
	c-5.089,0-9.23-4.174-9.23-9.295v-4.592c0-5.214,4.141-10.113,9.23-10.113h15.003c1.704,0,2.767-0.627,2.767-2.331v-15.003
	c0-5.09,4.464-9.666,9.678-9.666h4.592c5.12,0,9.731,4.576,9.731,9.666v15.003c0,1.648,0.973,2.331,2.714,2.331h14.056
	c5.089,0,9.23,4.899,9.23,10.113V197.546z M274.216,242.841c0,8.284-6.716,15-15,15h-128c-8.284,0-15-6.716-15-15v-97
	c0-8.284,6.716-15,15-15h128c8.284,0,15,6.716,15,15V242.841z M328.216,221.777c-14.912,0-27-12.088-27-27c0-14.912,12.088-27,27-27
	c14.912,0,27,12.088,27,27C355.216,209.689,343.128,221.777,328.216,221.777z"/>
</svg>