<?xml version="1.0" encoding="UTF-8"?>
<svg width="256" height="180" version="1.1" viewBox="0 0 256 180" xml:space="preserve" xmlns="http://www.w3.org/2000/svg">


<g transform="matrix(2.81,0,0,2.81,1.55,-36.45)">
	<rect x="25.98" y="25.27" width="38.95" height="37.62" rx="0" ry="0" fill="#fff"/>
	<path d="M 88.119,23.338 C 87.084,19.466 84.034,16.416 80.162,15.381 73.144,13.5 45,13.5 45,13.5 c 0,0 -28.144,0 -35.162,1.881 C 5.966,16.416 2.916,19.466 1.881,23.338 0,30.356 0,45 0,45 0,45 0,59.644 1.881,66.662 2.916,70.534 5.966,73.584 9.838,74.619 16.856,76.5 45,76.5 45,76.5 c 0,0 28.144,0 35.162,-1.881 3.872,-1.035 6.922,-4.085 7.957,-7.957 C 90,59.644 90,45 90,45 90,45 90,30.356 88.119,23.338 Z M 36,58.5 v -27 L 59.382,45 Z" fill="#f61c0d" stroke-linecap="round"/>
</g>
</svg>
